<mxfile host="app.diagrams.net" modified="2024-03-27T22:07:59.135Z" agent="Mozilla/5.0 (Macintosh; Intel Mac OS X 10_15_7) AppleWebKit/537.36 (KHTML, like Gecko) Chrome/123.0.0.0 Safari/537.36" version="24.2.0" etag="vMhfQ5K-fV6x7cSXvgxn" type="github">
  <diagram name="Page-1" id="pclT_zBX5-gk30od43Fa">
    <mxGraphModel>
      <root>
        <mxCell id="0" />
        <mxCell id="1" parent="0" />
      </root>
    </mxGraphModel>
  </diagram>
</mxfile>
